<svg width="350" height="350" viewBox="0 0 350 350" fill="none" xmlns="http://www.w3.org/2000/svg">
<path d="M124.568 29.4423C125.384 34.2787 125.848 38.0415 126.023 40.9306C126.201 43.863 126.066 45.7077 125.803 46.8009C125.733 47.0875 125.666 47.2837 125.611 47.4139C125.462 47.3836 125.234 47.3222 124.911 47.1972C124.004 46.8463 122.85 46.1951 121.385 45.264C120.56 44.74 119.829 44.2551 119.054 43.7412C118.324 43.2569 117.554 42.7468 116.632 42.154C113.276 39.9984 109.175 37.6022 104.933 36.862C98.5916 35.7556 93.4033 32.0532 90.4837 27.3806C87.582 22.7366 86.9615 17.244 89.47 12.2379C92.2461 6.69782 95.3913 4.30348 98.5299 3.4317C101.809 2.52095 105.709 3.08868 110.299 4.7868C118.265 7.73389 122.347 16.2755 124.568 29.4423ZM125.487 47.6411C125.486 47.6401 125.493 47.6308 125.507 47.6163C125.495 47.6348 125.487 47.6421 125.487 47.6411ZM38.6883 137.461C43.488 138.907 47.1503 140.182 49.8842 141.321C52.658 142.477 54.3052 143.424 55.2044 144.154C55.4019 144.315 55.5411 144.446 55.638 144.547C55.5455 144.651 55.4116 144.787 55.2198 144.955C54.4978 145.587 53.3882 146.305 51.8798 147.171C51.0321 147.658 50.2612 148.081 49.4444 148.529C48.6745 148.952 47.8637 149.397 46.9094 149.939C43.4441 151.906 39.4077 154.426 36.8236 157.822C29.0067 168.093 14.1049 169.102 7.20156 160.295C3.35132 155.384 2.59045 151.595 3.17815 148.532C3.79478 145.319 6.02194 142.189 9.62716 138.933C15.8895 133.278 25.5957 133.519 38.6883 137.461ZM55.845 144.814C55.8441 144.814 55.8389 144.805 55.8322 144.787C55.8426 144.805 55.846 144.814 55.845 144.814ZM318.078 138.697C313.698 139.074 310.306 139.221 307.716 139.18C305.085 139.138 303.463 138.901 302.528 138.612C302.474 138.595 302.424 138.579 302.377 138.563C302.391 138.535 302.405 138.506 302.42 138.476C302.771 137.771 303.405 136.86 304.334 135.672C304.863 134.996 305.337 134.413 305.842 133.794C306.32 133.207 306.826 132.586 307.431 131.821C309.577 129.104 312.056 125.691 313.029 122.003C315.829 111.39 327.307 105.896 335.693 110.7C340.439 113.419 342.259 116.186 342.793 118.735C343.355 121.421 342.649 124.581 340.842 128.353C337.787 134.731 330.059 137.667 318.078 138.697ZM301.887 138.341C301.888 138.341 301.895 138.346 301.908 138.357C301.893 138.347 301.887 138.341 301.887 138.341ZM163.406 311.992C170.768 303.516 175.724 299.53 178.884 298.147C180.404 297.482 181.154 297.576 181.446 297.669C181.699 297.749 182.089 297.979 182.529 298.815C183.517 300.688 183.959 304.086 183.972 308.362C183.983 311.79 183.729 315.344 183.508 318.432C183.463 319.07 183.419 319.689 183.379 320.282C182.931 326.908 181.934 331.144 180.172 334.23C178.464 337.22 175.85 339.448 171.439 341.647C167.737 343.493 163.446 343.12 159.811 341.135C156.157 339.138 153.489 335.683 152.903 331.821C152.206 327.233 152.569 325.359 153.799 323.313C154.516 322.122 155.583 320.801 157.212 318.955C157.786 318.304 158.443 317.573 159.169 316.765C160.406 315.39 161.841 313.793 163.406 311.992ZM198.238 22.8685L205.127 64.2019C208.253 82.9547 229.264 92.6902 245.592 82.9507L261.793 73.2865C281.503 61.5294 303.087 85.3864 289.423 103.825L277.394 120.057C265.114 136.627 275.196 160.291 295.653 162.913L322.989 166.418C346.95 169.49 347.625 203.948 323.803 207.956L270.063 216.999C252.864 219.893 242.88 238.089 249.679 254.15L251.979 259.581C260.516 279.748 236.353 297.881 219.375 284.048L199.127 267.55C188.439 258.843 172.908 259.585 163.1 269.272L123.517 308.364C106.111 325.555 78.3536 304.143 90.5628 282.943L103.271 260.876C113.4 243.288 101.228 221.231 80.9472 220.423L61.3923 219.645C38.8881 218.749 33.3887 187.865 54.2002 179.256L73.5949 171.233C91.375 163.878 95.9746 140.815 82.3764 127.202L74.039 118.856C58.3497 103.149 74.5869 77.0129 95.6189 84.1196L117.281 91.4392C133.865 97.043 151.315 85.6269 152.824 68.1868L156.602 24.5115C158.729 -0.0806078 194.179 -1.47943 198.238 22.8685Z" fill="#FAFF00" stroke="#DFE300" stroke-width="6"/>
</svg>
