<svg width="350" height="350" viewBox="0 0 350 350" fill="none" xmlns="http://www.w3.org/2000/svg">
<path d="M126.568 31.4423C127.384 36.2787 127.848 40.0415 128.023 42.9306C128.201 45.863 128.066 47.7077 127.803 48.8009C127.733 49.0875 127.666 49.2837 127.611 49.4139C127.462 49.3836 127.234 49.3222 126.911 49.1972C126.004 48.8463 124.85 48.1951 123.385 47.264C122.56 46.74 121.829 46.2551 121.054 45.7412C120.324 45.2569 119.554 44.7468 118.632 44.154C115.276 41.9984 111.175 39.6022 106.933 38.862C100.592 37.7556 95.4033 34.0532 92.4837 29.3806C89.582 24.7366 88.9615 19.244 91.47 14.2379C94.2461 8.69782 97.3913 6.30348 100.53 5.4317C103.809 4.52095 107.709 5.08868 112.299 6.7868C120.265 9.73389 124.347 18.2755 126.568 31.4423ZM127.487 49.6411C127.486 49.6401 127.493 49.6308 127.507 49.6163C127.495 49.6348 127.487 49.6421 127.487 49.6411ZM40.6883 139.461C45.488 140.907 49.1503 142.182 51.8842 143.321C54.658 144.477 56.3052 145.424 57.2044 146.154C57.4019 146.315 57.5411 146.446 57.638 146.547C57.5455 146.651 57.4116 146.787 57.2198 146.955C56.4978 147.587 55.3882 148.305 53.8798 149.171C53.0321 149.658 52.2612 150.081 51.4444 150.529C50.6745 150.952 49.8637 151.397 48.9094 151.939C45.4441 153.906 41.4077 156.426 38.8236 159.822C31.0067 170.093 16.1049 171.102 9.20156 162.295C5.35132 157.384 4.59045 153.595 5.17815 150.532C5.79478 147.319 8.02194 144.189 11.6272 140.933C17.8895 135.278 27.5957 135.519 40.6883 139.461ZM57.845 146.814C57.8441 146.814 57.8389 146.805 57.8322 146.787C57.8426 146.805 57.846 146.814 57.845 146.814ZM320.078 140.697C315.698 141.074 312.306 141.221 309.716 141.18C307.085 141.138 305.463 140.901 304.528 140.612C304.474 140.595 304.424 140.579 304.377 140.563C304.391 140.535 304.405 140.506 304.42 140.476C304.771 139.771 305.405 138.86 306.334 137.672C306.863 136.996 307.337 136.413 307.842 135.794C308.32 135.207 308.826 134.586 309.431 133.821C311.577 131.104 314.056 127.691 315.029 124.003C317.829 113.39 329.307 107.896 337.693 112.7C342.439 115.419 344.259 118.186 344.793 120.735C345.355 123.421 344.649 126.581 342.842 130.353C339.787 136.731 332.059 139.667 320.078 140.697ZM303.887 140.341C303.888 140.341 303.895 140.346 303.908 140.357C303.893 140.347 303.887 140.341 303.887 140.341ZM165.406 313.992C172.768 305.516 177.724 301.53 180.884 300.147C182.404 299.482 183.154 299.576 183.446 299.669C183.699 299.749 184.089 299.979 184.529 300.815C185.517 302.688 185.959 306.086 185.972 310.362C185.983 313.79 185.729 317.344 185.508 320.432C185.463 321.07 185.419 321.689 185.379 322.282C184.931 328.908 183.934 333.144 182.172 336.23C180.464 339.22 177.85 341.448 173.439 343.647C169.737 345.493 165.446 345.12 161.811 343.135C158.157 341.138 155.489 337.683 154.903 333.821C154.206 329.233 154.569 327.359 155.799 325.313C156.516 324.122 157.583 322.801 159.212 320.955C159.786 320.304 160.443 319.573 161.169 318.765C162.406 317.39 163.841 315.793 165.406 313.992ZM200.238 24.8685L207.127 66.2019C210.253 84.9547 231.264 94.6902 247.592 84.9507L263.793 75.2865C283.503 63.5294 305.087 87.3864 291.423 105.825L279.394 122.057C267.114 138.627 277.196 162.291 297.653 164.913L324.989 168.418C348.95 171.49 349.625 205.948 325.803 209.956L272.063 218.999C254.864 221.893 244.88 240.089 251.679 256.15L253.979 261.581C262.516 281.748 238.353 299.881 221.375 286.048L201.127 269.55C190.439 260.843 174.908 261.585 165.1 271.272L125.517 310.364C108.111 327.555 80.3536 306.143 92.5628 284.943L105.271 262.876C115.4 245.288 103.228 223.231 82.9472 222.423L63.3923 221.645C40.8881 220.749 35.3887 189.865 56.2002 181.256L75.5949 173.233C93.375 165.878 97.9746 142.815 84.3764 129.202L76.039 120.856C60.3497 105.149 76.5869 79.0129 97.6189 86.1196L119.281 93.4392C135.865 99.043 153.315 87.6269 154.824 70.1868L158.602 26.5115C160.729 1.91939 196.179 0.520568 200.238 24.8685Z" fill="#0029FF" stroke="#1B2AB7" stroke-width="6"/>
</svg>
