<svg width="350" height="350" viewBox="0 0 350 350" fill="none" xmlns="http://www.w3.org/2000/svg">
<path d="M124.568 33.4423C125.384 38.2787 125.848 42.0415 126.023 44.9306C126.201 47.863 126.066 49.7077 125.803 50.8009C125.733 51.0875 125.666 51.2837 125.611 51.4139C125.462 51.3836 125.234 51.3222 124.911 51.1972C124.004 50.8463 122.85 50.1951 121.385 49.264C120.56 48.74 119.829 48.2551 119.054 47.7412C118.324 47.2569 117.554 46.7468 116.632 46.154C113.276 43.9984 109.175 41.6022 104.933 40.862C98.5916 39.7556 93.4033 36.0532 90.4837 31.3806C87.582 26.7366 86.9615 21.244 89.47 16.2379C92.2461 10.6978 95.3913 8.30348 98.5299 7.4317C101.809 6.52095 105.709 7.08868 110.299 8.7868C118.265 11.7339 122.347 20.2755 124.568 33.4423ZM125.487 51.6411C125.486 51.6401 125.493 51.6308 125.507 51.6163C125.495 51.6348 125.487 51.6421 125.487 51.6411ZM38.6883 141.461C43.488 142.907 47.1503 144.182 49.8842 145.321C52.658 146.477 54.3052 147.424 55.2044 148.154C55.4019 148.315 55.5411 148.446 55.638 148.547C55.5455 148.651 55.4116 148.787 55.2198 148.955C54.4978 149.587 53.3882 150.305 51.8798 151.171C51.0321 151.658 50.2612 152.081 49.4444 152.529C48.6745 152.952 47.8637 153.397 46.9094 153.939C43.4441 155.906 39.4077 158.426 36.8236 161.822C29.0067 172.093 14.1049 173.102 7.20156 164.295C3.35132 159.384 2.59045 155.595 3.17815 152.532C3.79478 149.319 6.02194 146.189 9.62716 142.933C15.8895 137.278 25.5957 137.519 38.6883 141.461ZM55.845 148.814C55.8441 148.814 55.8389 148.805 55.8322 148.787C55.8426 148.805 55.846 148.814 55.845 148.814ZM318.078 142.697C313.698 143.074 310.306 143.221 307.716 143.18C305.085 143.138 303.463 142.901 302.528 142.612C302.474 142.595 302.424 142.579 302.377 142.563C302.391 142.535 302.405 142.506 302.42 142.476C302.771 141.771 303.405 140.86 304.334 139.672C304.863 138.996 305.337 138.413 305.842 137.794C306.32 137.207 306.826 136.586 307.431 135.821C309.577 133.104 312.056 129.691 313.029 126.003C315.829 115.39 327.307 109.896 335.693 114.7C340.439 117.419 342.259 120.186 342.793 122.735C343.355 125.421 342.649 128.581 340.842 132.353C337.787 138.731 330.059 141.667 318.078 142.697ZM301.887 142.341C301.888 142.341 301.895 142.346 301.908 142.357C301.893 142.347 301.887 142.341 301.887 142.341ZM163.406 315.992C170.768 307.516 175.724 303.53 178.884 302.147C180.404 301.482 181.154 301.576 181.446 301.669C181.699 301.749 182.089 301.979 182.529 302.815C183.517 304.688 183.959 308.086 183.972 312.362C183.983 315.79 183.729 319.344 183.508 322.432C183.463 323.07 183.419 323.689 183.379 324.282C182.931 330.908 181.934 335.144 180.172 338.23C178.464 341.22 175.85 343.448 171.439 345.647C167.737 347.493 163.446 347.12 159.811 345.135C156.157 343.138 153.489 339.683 152.903 335.821C152.206 331.233 152.569 329.359 153.799 327.313C154.516 326.122 155.583 324.801 157.212 322.955C157.786 322.304 158.443 321.573 159.169 320.765C160.406 319.39 161.841 317.793 163.406 315.992ZM198.238 26.8685L205.127 68.2019C208.253 86.9547 229.264 96.6902 245.592 86.9507L261.793 77.2865C281.503 65.5294 303.087 89.3864 289.423 107.825L277.394 124.057C265.114 140.627 275.196 164.291 295.653 166.913L322.989 170.418C346.95 173.49 347.625 207.948 323.803 211.956L270.063 220.999C252.864 223.893 242.88 242.089 249.679 258.15L251.979 263.581C260.516 283.748 236.353 301.881 219.375 288.048L199.127 271.55C188.439 262.843 172.908 263.585 163.1 273.272L123.517 312.364C106.111 329.555 78.3536 308.143 90.5628 286.943L103.271 264.876C113.4 247.288 101.228 225.231 80.9472 224.423L61.3923 223.645C38.8881 222.749 33.3887 191.865 54.2002 183.256L73.5949 175.233C91.375 167.878 95.9746 144.815 82.3764 131.202L74.039 122.856C58.3497 107.149 74.5869 81.0129 95.6189 88.1196L117.281 95.4392C133.865 101.043 151.315 89.6269 152.824 72.1868L156.602 28.5115C158.729 3.91939 194.179 2.52057 198.238 26.8685Z" fill="#FF8A00" stroke="#E46E00" stroke-width="6"/>
</svg>
