<svg width="300" height="300" viewBox="0 0 300 300" fill="none" xmlns="http://www.w3.org/2000/svg">
<path d="M35.6433 42.4356C35.6433 29.4925 46.1358 19 59.079 19H194.485C233.314 19 264.792 50.4775 264.792 89.3069V175.238H35.6433V42.4356Z" fill="white"/>
<path fill-rule="evenodd" clip-rule="evenodd" d="M194.485 32.0198H59.079C53.3264 32.0198 48.6631 36.6831 48.6631 42.4356V162.218H251.772V89.3069C251.772 57.6681 226.124 32.0198 194.485 32.0198ZM59.079 19C46.1358 19 35.6433 29.4925 35.6433 42.4356V175.238H264.792V89.3069C264.792 50.4775 233.314 19 194.485 19H59.079Z" fill="black"/>
<path d="M7 138.782C7 125.839 17.4925 115.347 30.4356 115.347H267.396C281.777 115.347 293.436 127.005 293.436 141.386V232.525C293.436 233.963 292.27 235.129 290.832 235.129H7V138.782Z" fill="black"/>
<path fill-rule="evenodd" clip-rule="evenodd" d="M267.396 128.366H30.4356C24.6831 128.366 20.0198 133.03 20.0198 138.782V222.109H280.416V141.386C280.416 134.196 274.587 128.366 267.396 128.366ZM30.4356 115.347C17.4925 115.347 7 125.839 7 138.782V235.129H290.832C292.27 235.129 293.436 233.963 293.436 232.525V141.386C293.436 127.005 281.777 115.347 267.396 115.347H30.4356Z" fill="black"/>
<path d="M51.2671 175.238H259.584V282H51.2671V175.238Z" fill="white"/>
<path fill-rule="evenodd" clip-rule="evenodd" d="M246.564 188.257H64.2869V268.98H246.564V188.257ZM51.2671 175.238V282H259.584V175.238H51.2671Z" fill="black"/>
<path d="M277.812 143.99C277.812 151.181 271.983 157.01 264.792 157.01C257.601 157.01 251.772 151.181 251.772 143.99C251.772 136.8 257.601 130.97 264.792 130.97C271.983 130.97 277.812 136.8 277.812 143.99Z" fill="white"/>
</svg>
