<svg width="985" height="805" viewBox="0 0 985 805" fill="none" xmlns="http://www.w3.org/2000/svg">
<path d="M346.558 109.766C346.558 148.864 380.285 208.425 387.03 210.252C393.776 212.079 401.539 200.565 427.859 183.942C443.76 175.461 475.429 152.136 479.93 151.787C484.431 151.438 462.493 96.9057 446.675 73.7351C421.914 37.2278 377.043 21.6863 364.955 28.3094C352.867 34.9318 343.773 75.7891 346.558 109.766Z" fill="white" stroke="black" stroke-width="8" stroke-linecap="round"/>
<path d="M359.168 107.691C359.168 138.863 384.619 186.349 389.71 187.806C394.799 189.262 400.658 180.083 420.519 166.83C432.519 160.068 456.416 141.472 459.813 141.194C463.209 140.915 446.655 97.438 434.718 78.9643C416.033 49.858 375.472 42.7481 373.051 42.7474C370.629 42.7474 357.066 80.6027 359.168 107.691Z" fill="white" stroke="black" stroke-width="8" stroke-linecap="round"/>
<path d="M561.559 76.8825C532.602 103.801 517.366 170.512 520.547 176.973C523.728 183.434 531.268 181.811 561.27 190.669C578.24 197.097 600.652 213.59 603.935 216.821C607.22 220.052 647.456 178.807 653.985 150.652C664.377 106.415 648.704 39.7572 635.673 34.9917C622.642 30.2262 584.852 51.3418 561.559 76.8825Z" fill="white" stroke="black" stroke-width="8" stroke-linecap="round"/>
<path d="M573.777 83.6573C551.662 110.032 538.557 155.155 540.604 160.57C542.651 165.985 542.227 166.608 565.635 175.792C578.762 182.127 603.865 199.929 606.249 202.754C608.634 205.578 628.78 176.906 636.243 154.71C651.065 91.7149 631.356 56.554 628.618 52.7461C625.879 48.9375 593.188 62.7806 573.777 83.6573Z" fill="white" stroke="black" stroke-width="8" stroke-linecap="round"/>
<path d="M492.407 135.495C529.215 135.495 569.039 149.327 593.76 170.949C617.363 188.833 629.78 211.21 636.062 233.051L636.84 236.795C637.721 240.484 639.013 245.44 639.013 247.247L643.553 269.088C532.724 306.962 468.401 307.161 349.737 269.088L358.919 240.695C368.454 210.956 383.391 178.936 409.418 159.216C435.445 139.496 455.599 135.495 492.407 135.495Z" fill="white"/>
<path d="M639.013 247.247C639.013 244.651 636.345 235.551 636.062 233.051M636.062 233.051C629.78 211.21 617.363 188.833 593.76 170.949C569.039 149.327 529.215 135.495 492.407 135.495C455.599 135.495 435.445 139.496 409.418 159.216C383.391 178.936 368.454 210.956 358.919 240.695L349.737 269.088C468.401 307.161 532.724 306.962 643.553 269.088L636.062 233.051Z" stroke="black" stroke-width="8"/>
<path d="M361.71 234.843C384.26 159.787 422.403 136.164 491.02 135.505C559.637 134.846 616.1 167.146 636.184 234.843C627.376 256.918 556.555 252.503 531.891 234.843L464.242 232.268C430.372 248.659 407.344 249.882 361.71 234.843Z" fill="white" stroke="black" stroke-width="8"/>
<path d="M466.71 224.893C466.71 210.276 476.009 196.389 501.044 196.389C529.656 200.409 532.845 209.278 533.947 232.201C533.947 232.201 530.371 242.434 522.145 244.261C513.919 246.087 516.065 239.349 512.489 239.349C508.912 239.349 506.766 247.388 502.475 244.465C498.183 241.542 498.541 242.068 493.891 244.261C489.242 246.453 488.602 239.145 485.308 239.145C482.013 239.145 483.162 244.261 476.009 244.261C468.856 244.261 466.71 224.893 466.71 224.893Z" fill="white" stroke="black" stroke-width="8"/>
<path d="M453.816 249.789C464.568 260.866 482.488 267.914 496.107 267.578C509.726 267.243 531.231 265.9 539.474 253.146" stroke="black" stroke-width="8" stroke-linecap="round"/>
<path d="M451.125 207.872C447.336 215.395 441.903 220.951 436.298 223.917C430.687 226.886 425.124 227.174 420.705 224.693C416.284 222.211 413.401 217.179 412.595 210.606C411.789 204.04 413.113 196.177 416.902 188.654C420.69 181.131 426.123 175.575 431.728 172.61C437.34 169.64 442.901 169.351 447.322 171.834C451.742 174.315 454.625 179.347 455.432 185.92C456.237 192.486 454.913 200.349 451.125 207.872Z" fill="white" stroke="black" stroke-width="8"/>
<path d="M431.879 207.71C435.499 209.537 440.642 206.352 443.367 200.596C446.091 194.841 445.365 188.695 441.745 186.869C438.126 185.042 432.983 188.227 430.258 193.983C427.534 199.738 428.26 205.884 431.879 207.71Z" fill="black"/>
<path d="M578.604 188.691C583.547 195.284 586.132 202.649 586.42 209.145C586.708 215.647 584.709 221.034 580.788 224.232C576.866 227.431 571.37 228.156 565.389 226.297C559.413 224.441 553.182 220.048 548.239 213.456C543.296 206.864 540.71 199.498 540.422 193.003C540.134 186.5 542.134 181.114 546.055 177.915C549.977 174.717 555.472 173.992 561.454 175.85C567.43 177.707 573.66 182.099 578.604 188.691Z" fill="white" stroke="black" stroke-width="8"/>
<path d="M570.484 209.926C573.949 207.802 574.19 201.616 571.022 196.107C567.855 190.599 562.479 187.855 559.014 189.978C555.55 192.101 555.309 198.288 558.476 203.796C561.643 209.305 567.02 212.049 570.484 209.926Z" fill="black"/>
<path d="M262.237 652.959L264.716 555.117L714.945 544.895C720.798 573.037 726.278 589.07 729.116 615.719C731.947 642.367 728.703 706.27 721.323 703.703C713.936 701.136 669.602 686.18 659.685 686.18C649.767 686.18 623.553 693.482 623.553 693.482L583.525 705.891C583.525 705.891 555.187 720.131 539.954 724.15C524.723 728.163 493.55 726.704 483.986 724.15C474.422 721.59 388.343 695.671 388.343 695.671L352.92 688.734C352.92 688.734 337.334 688.734 321.748 695.671C306.162 702.608 276.052 716.119 270.385 716.483C264.716 716.848 262.237 652.959 262.237 652.959Z" fill="white" stroke="black" stroke-width="8" stroke-linecap="round"/>
<path d="M814.744 236.932C820.037 231.46 654.939 314.638 654.939 314.638C668.806 369.679 667.325 422.052 650 549.579C650 549.579 809.45 242.405 814.744 236.932Z" fill="white" stroke="black" stroke-width="8" stroke-linecap="round"/>
<path d="M838.661 548.612C841.603 546.792 801.414 262.591 813.394 238.814C825.381 215.035 649.144 551.633 649.144 551.633L638.026 592.674C719.977 538.78 835.714 550.433 838.661 548.612Z" fill="white" stroke="black" stroke-width="8" stroke-linecap="round"/>
<path d="M966.804 299.995C969.633 298.909 814.276 234.8 814.276 234.8C799.762 246.133 841.137 567.895 839.67 548.758C838.203 529.62 852.764 456.521 882.048 401.384C909.767 355.651 928.225 333.34 966.804 299.995Z" fill="white" stroke="black" stroke-width="8" stroke-linecap="round"/>
<path d="M851.547 116.758C848.35 121.982 816.71 235.784 816.71 235.784C816.71 235.784 963.892 296.083 966.734 297.544C969.576 299.006 915.479 234.688 897.764 206.548C880.056 178.41 851.547 116.758 851.547 116.758Z" fill="white" stroke="black" stroke-width="8" stroke-linecap="round"/>
<path d="M841.779 55.0456C837.798 55.4394 837.799 55.4394 837.799 55.4396L837.799 55.4403L837.799 55.443L837.8 55.454L837.804 55.4977L837.821 55.6687L837.885 56.3199C837.941 56.8818 838.02 57.6863 838.114 58.6563C838.304 60.5967 838.557 63.1981 838.81 65.8445C839.007 67.9053 839.203 69.9894 839.369 71.8081C837.162 70.9263 834.328 69.7959 831.284 68.7934C830.162 68.4238 829.012 68.1418 827.92 68.1109C826.93 68.0828 825.04 68.2469 823.691 69.875C822.339 71.5066 822.563 73.3623 822.745 74.1853C822.95 75.1054 823.35 75.9236 823.677 76.5081C824.353 77.7182 825.277 78.9103 825.935 79.7101C826.282 80.1311 826.593 80.4885 826.818 80.7425C826.932 80.8701 827.025 80.9729 827.092 81.0462C827.125 81.0829 827.153 81.1123 827.172 81.1338L827.197 81.1601L827.205 81.1686L827.208 81.1718L827.209 81.173C827.209 81.1736 827.21 81.1741 830.131 78.4414L827.21 81.1741L827.337 81.3098L827.476 81.4331L827.476 81.4332L827.477 81.4344L827.484 81.4403L827.513 81.466L827.63 81.5711C827.673 81.6091 827.724 81.6546 827.782 81.7073C827.868 81.7837 827.969 81.8752 828.086 81.9805C828.48 82.3362 829.044 82.8487 829.718 83.4712C831.071 84.7192 832.851 86.3951 834.589 88.1283C836.349 89.8822 837.979 91.6099 839.081 92.9787C839.325 93.2815 839.521 93.5404 839.676 93.7564C839.617 93.9356 839.553 94.1299 839.485 94.3383C839.141 95.3901 838.672 96.856 838.099 98.6689C836.951 102.298 835.372 107.355 833.509 113.354C829.784 125.354 824.917 141.146 820.084 156.866C815.251 172.587 810.452 188.238 806.86 199.96C805.065 205.82 803.571 210.699 802.527 214.112L801.412 217.753L645.573 289.02L642.29 290.522L643.448 293.942L650.51 314.779L651.972 319.092L656.06 317.086L818.474 237.394L820.057 236.618L820.551 234.926L862.404 91.8116C862.518 91.6323 862.661 91.4071 862.83 91.1406C863.294 90.4055 863.952 89.3554 864.731 88.0892C866.287 85.5612 868.337 82.1522 870.294 78.6604C872.233 75.1993 874.15 71.5337 875.387 68.528C875.992 67.057 876.527 65.5247 876.761 64.1552C876.877 63.4817 876.965 62.5971 876.815 61.6694C876.662 60.7214 876.177 59.3053 874.77 58.3342C874.769 58.3336 874.768 58.333 874.768 58.3324C871.842 56.3139 868.721 57.8067 867.391 58.5866C866.759 58.9576 866.13 59.3998 865.52 59.879C865.735 58.5358 865.898 57.172 865.962 55.8582C866.084 53.3705 865.928 50.0058 864.036 47.5111L864.034 47.5086C863.504 46.8109 862.621 45.9253 861.278 45.5164C859.802 45.0671 858.434 45.3888 857.426 45.9474C855.799 46.8498 854.839 48.5069 854.325 49.4887C853.116 51.796 852.051 55.1613 851.174 58.248C851.157 58.3069 851.14 58.3659 851.123 58.4251C850.576 56.7666 849.992 55.0994 849.383 53.5685L849.382 53.565C849.014 52.6422 848.61 51.8024 848.144 51.0847C847.702 50.4029 847.048 49.5859 846.088 49.0035C844.992 48.3391 843.609 48.0632 842.206 48.4815C840.978 48.8474 840.182 49.614 839.75 50.1201C838.917 51.0969 838.468 52.2678 838.265 52.843C838.142 53.1937 838.05 53.5044 837.988 53.7294C837.957 53.8434 837.932 53.9393 837.914 54.0121C837.905 54.0486 837.897 54.0795 837.891 54.1043L837.884 54.1368L837.881 54.1495L837.879 54.155L837.879 54.1575C837.879 54.1587 837.878 54.1598 841.779 55.0456ZM841.779 55.0456L837.798 55.4394L837.735 54.7931L837.878 54.1598L841.779 55.0456ZM845.961 55.1435C845.961 55.1436 845.959 55.1473 845.955 55.1541C845.959 55.1469 845.961 55.1435 845.961 55.1435ZM840.268 92.1231C840.279 92.101 840.289 92.0789 840.3 92.0566C840.289 92.0783 840.279 92.1005 840.268 92.1231ZM840.114 94.4458C840.114 94.4457 840.112 94.4413 840.108 94.4328C840.112 94.4416 840.114 94.4459 840.114 94.4458Z" fill="white" stroke="black" stroke-width="8" stroke-linecap="round"/>
<path d="M392.409 717.787L389.932 691.845L412.938 686.362C412.938 686.362 418.954 714.129 421.078 722.898C423.202 731.674 423.909 732.404 421.078 735.69C418.246 738.976 385.685 774.788 385.685 774.788C385.685 774.788 379.314 792.691 370.112 789.405C362.25 786.593 367.821 774.714 369.611 771.313C367.514 775.038 359.255 788.621 353.122 783.557C348.914 780.082 350.585 774.281 352.633 770.15C349.869 773.754 345.329 777.601 339.673 774.788C330.117 770.035 338.612 761.632 338.612 761.632C364.956 744.114 377.205 734.479 392.409 717.787Z" fill="white"/>
<path d="M392.409 717.787L395.366 720.48L396.559 719.17L396.391 717.406L392.409 717.787ZM389.932 691.845L389.004 687.954L385.619 688.761L385.95 692.225L389.932 691.845ZM412.938 686.362L416.847 685.515L415.982 681.524L412.01 682.471L412.938 686.362ZM421.078 722.898L424.966 721.957L424.966 721.956L421.078 722.898ZM421.078 735.69L424.108 738.301L424.108 738.301L421.078 735.69ZM385.685 774.788L382.725 772.097L382.185 772.691L381.916 773.447L385.685 774.788ZM370.112 789.405L368.764 793.172L368.766 793.173L370.112 789.405ZM369.611 771.313L373.151 773.176C374.17 771.241 373.445 768.846 371.524 767.8C369.603 766.754 367.198 767.445 366.125 769.351L369.611 771.313ZM353.122 783.557L350.576 786.642L350.576 786.642L353.122 783.557ZM352.633 770.15L356.217 771.926C357.131 770.082 356.495 767.844 354.748 766.755C353 765.667 350.712 766.082 349.459 767.716L352.633 770.15ZM339.673 774.788L337.892 778.37L337.892 778.37L339.673 774.788ZM338.612 761.632L336.397 758.301L336.074 758.515L335.798 758.788L338.612 761.632ZM396.391 717.406L393.914 691.465L385.95 692.225L388.427 718.167L396.391 717.406ZM390.859 695.736L413.865 690.253L412.01 682.471L389.004 687.954L390.859 695.736ZM412.938 686.362C409.029 687.209 409.029 687.209 409.029 687.209C409.029 687.209 409.029 687.21 409.029 687.21C409.029 687.211 409.029 687.212 409.03 687.214C409.03 687.217 409.031 687.222 409.033 687.229C409.036 687.243 409.04 687.263 409.046 687.289C409.057 687.342 409.074 687.421 409.097 687.524C409.141 687.73 409.207 688.033 409.292 688.421C409.46 689.198 409.704 690.318 410.003 691.689C410.6 694.431 411.419 698.179 412.305 702.201C414.072 710.227 416.117 719.406 417.19 723.839L424.966 721.956C423.916 717.621 421.89 708.532 420.118 700.481C419.234 696.466 418.416 692.724 417.819 689.986C417.521 688.616 417.278 687.498 417.109 686.723C417.025 686.335 416.959 686.033 416.915 685.828C416.893 685.725 416.876 685.647 416.864 685.594C416.859 685.568 416.854 685.548 416.851 685.535C416.85 685.528 416.849 685.523 416.848 685.52C416.848 685.518 416.848 685.517 416.847 685.516C416.847 685.515 416.847 685.515 416.847 685.515C416.847 685.515 416.847 685.515 412.938 686.362ZM417.19 723.839C417.761 726.199 418.145 727.647 418.48 729.059C418.798 730.403 418.918 731.111 418.942 731.561C418.952 731.753 418.939 731.837 418.936 731.856C418.935 731.866 418.934 731.874 418.92 731.906C418.867 732.024 418.696 732.326 418.048 733.079L424.108 738.301C424.876 737.41 425.678 736.389 426.222 735.172C426.821 733.833 427.002 732.511 426.931 731.144C426.866 729.904 426.587 728.578 426.264 727.215C425.957 725.918 425.456 723.985 424.966 721.957L417.19 723.839ZM418.048 733.078C416.676 734.671 407.883 744.385 399.357 753.784C395.111 758.465 390.953 763.043 387.856 766.451C386.308 768.156 385.025 769.567 384.129 770.553C383.681 771.045 383.33 771.432 383.091 771.695C382.972 771.826 382.88 771.927 382.819 771.995C382.788 772.029 382.764 772.054 382.749 772.071C382.741 772.08 382.735 772.087 382.731 772.091C382.729 772.093 382.728 772.095 382.727 772.096C382.726 772.096 382.726 772.097 382.726 772.097C382.725 772.097 382.725 772.097 385.685 774.788C388.644 777.479 388.644 777.479 388.645 777.479C388.645 777.479 388.645 777.478 388.646 777.478C388.647 777.476 388.648 777.475 388.65 777.473C388.654 777.468 388.66 777.462 388.668 777.453C388.684 777.436 388.707 777.41 388.738 777.376C388.8 777.308 388.891 777.208 389.011 777.076C389.25 776.813 389.601 776.426 390.049 775.933C390.945 774.948 392.229 773.536 393.777 771.831C396.875 768.422 401.034 763.842 405.282 759.159C413.745 749.83 422.648 739.995 424.108 738.301L418.048 733.078ZM385.685 774.788C381.916 773.447 381.917 773.446 381.917 773.446C381.917 773.445 381.917 773.445 381.917 773.444C381.918 773.444 381.918 773.443 381.918 773.443C381.918 773.443 381.918 773.443 381.917 773.445C381.916 773.448 381.913 773.456 381.909 773.467C381.9 773.49 381.886 773.529 381.866 773.583C381.826 773.691 381.762 773.857 381.676 774.073C381.504 774.505 381.245 775.131 380.905 775.876C380.218 777.384 379.239 779.305 378.033 781.092C376.796 782.925 375.499 784.349 374.264 785.143C373.152 785.858 372.322 785.947 371.457 785.638L368.766 793.173C372.502 794.506 375.919 793.59 378.591 791.872C381.138 790.234 383.159 787.798 384.665 785.566C386.202 783.288 387.39 780.938 388.186 779.192C388.587 778.311 388.897 777.564 389.11 777.03C389.216 776.762 389.298 776.547 389.356 776.394C389.385 776.317 389.407 776.256 389.423 776.212C389.432 776.19 389.438 776.171 389.443 776.158C389.446 776.151 389.448 776.145 389.449 776.14C389.45 776.138 389.451 776.136 389.452 776.134C389.452 776.133 389.452 776.132 389.452 776.131C389.453 776.13 389.453 776.129 385.685 774.788ZM371.459 785.639C370.637 785.345 370.392 784.975 370.234 784.531C370.002 783.878 369.924 782.797 370.186 781.247C370.71 778.153 372.298 774.796 373.151 773.176L366.071 769.45C365.134 771.231 363.042 775.514 362.298 779.913C361.926 782.109 361.817 784.737 362.696 787.21C363.649 789.89 365.655 792.059 368.764 793.172L371.459 785.639ZM366.125 769.351C365.111 771.154 362.722 775.115 359.992 777.964C358.599 779.417 357.429 780.246 356.6 780.554C356.039 780.762 355.926 780.685 355.669 780.473L350.576 786.642C353.385 788.962 356.605 789.085 359.383 788.054C361.893 787.123 364.068 785.273 365.768 783.499C369.226 779.891 372.015 775.198 373.097 773.275L366.125 769.351ZM355.669 780.473C354.802 779.757 354.433 778.831 354.524 777.345C354.624 775.715 355.294 773.789 356.217 771.926L349.049 768.374C347.924 770.643 346.734 773.683 346.539 776.854C346.335 780.17 347.235 783.883 350.576 786.642L355.669 780.473ZM349.459 767.716C348.249 769.293 346.878 770.604 345.492 771.276C344.299 771.854 343.058 772.005 341.454 771.207L337.892 778.37C341.943 780.385 345.8 780.017 348.982 778.475C351.972 777.025 354.253 774.611 355.807 772.585L349.459 767.716ZM341.454 771.207C339.703 770.336 339.318 769.582 339.22 769.32C339.104 769.013 339.066 768.526 339.34 767.731C339.618 766.924 340.121 766.101 340.633 765.42C340.877 765.095 341.097 764.837 341.248 764.667C341.323 764.583 341.38 764.523 341.411 764.489C341.427 764.473 341.437 764.463 341.439 764.461C341.441 764.459 341.44 764.46 341.438 764.462C341.436 764.463 341.435 764.465 341.433 764.467C341.432 764.468 341.43 764.469 341.429 764.471C341.428 764.471 341.427 764.473 341.427 764.473C341.426 764.474 341.425 764.475 338.612 761.632C335.798 758.788 335.797 758.789 335.796 758.79C335.795 758.791 335.794 758.792 335.793 758.793C335.791 758.795 335.789 758.797 335.787 758.799C335.783 758.803 335.778 758.808 335.773 758.813C335.763 758.824 335.75 758.836 335.736 758.851C335.706 758.881 335.67 758.919 335.626 758.965C335.538 759.057 335.421 759.182 335.282 759.337C335.007 759.645 334.638 760.081 334.234 760.618C333.452 761.661 332.428 763.236 331.777 765.124C331.122 767.024 330.752 769.53 331.732 772.135C332.728 774.785 334.865 776.865 337.892 778.37L341.454 771.207ZM340.826 764.962C367.299 747.359 379.85 737.516 395.366 720.48L389.452 715.093C374.56 731.443 362.612 740.869 336.397 758.301L340.826 764.962Z" fill="black"/>
<path d="M608.7 707.359L616.469 676.053L593.937 678.235C593.937 678.235 585.711 702.261 579.729 712.452C573.748 722.642 576.868 721.915 579.729 725.195C582.591 728.469 612.178 764.147 612.178 764.147C612.178 764.147 621.933 781.983 631.232 778.703C640.064 775.591 634.934 758.361 634.396 756.637C634.994 758.503 641.579 778.433 648.4 772.883C655.553 767.057 647.586 754.313 648.659 754.313C649.732 754.313 652.334 768.875 661.991 764.147C671.646 759.412 663.064 751.04 663.064 751.04C636.442 733.588 624.064 723.99 608.7 707.359Z" fill="white"/>
<path d="M608.7 707.359L604.818 706.396L604.298 708.49L605.762 710.074L608.7 707.359ZM616.469 676.053L620.351 677.016L621.714 671.526L616.084 672.071L616.469 676.053ZM593.937 678.235L593.551 674.254L590.987 674.502L590.153 676.939L593.937 678.235ZM579.729 712.452L576.279 710.427L576.279 710.427L579.729 712.452ZM579.729 725.195L576.715 727.824L576.718 727.828L579.729 725.195ZM612.178 764.147L615.687 762.228L615.502 761.89L615.257 761.594L612.178 764.147ZM631.232 778.703L629.903 774.93L629.902 774.93L631.232 778.703ZM634.396 756.637L638.206 755.417C637.533 753.318 635.291 752.159 633.19 752.823C631.09 753.487 629.921 755.725 630.578 757.828L634.396 756.637ZM648.4 772.883L650.925 775.986L650.926 775.984L648.4 772.883ZM661.991 764.147L663.75 767.739L663.752 767.738L661.991 764.147ZM663.064 751.04L665.857 748.176L665.58 747.906L665.257 747.694L663.064 751.04ZM612.582 708.323L620.351 677.016L612.587 675.089L604.818 706.396L612.582 708.323ZM616.084 672.071L593.551 674.254L594.322 682.216L616.855 680.034L616.084 672.071ZM593.937 678.235C590.153 676.939 590.153 676.939 590.153 676.939C590.153 676.939 590.152 676.939 590.152 676.94C590.152 676.94 590.152 676.941 590.152 676.942C590.151 676.945 590.149 676.949 590.148 676.954C590.144 676.965 590.138 676.981 590.131 677.003C590.116 677.047 590.093 677.113 590.063 677.2C590.002 677.374 589.913 677.633 589.796 677.967C589.562 678.635 589.221 679.603 588.793 680.798C587.936 683.189 586.732 686.48 585.344 690.084C582.531 697.386 579.083 705.651 576.279 710.427L583.179 714.476C586.357 709.062 590.013 700.218 592.809 692.959C594.225 689.283 595.451 685.931 596.323 683.498C596.76 682.281 597.108 681.293 597.348 680.607C597.468 680.264 597.56 679.997 597.623 679.814C597.655 679.723 597.679 679.653 597.696 679.605C597.704 679.582 597.71 679.563 597.714 679.551C597.716 679.545 597.718 679.54 597.719 679.536C597.72 679.535 597.72 679.533 597.721 679.532C597.721 679.532 597.721 679.531 597.721 679.531C597.721 679.531 597.721 679.531 593.937 678.235ZM576.279 710.427C574.743 713.044 573.666 715.166 573.035 716.94C572.41 718.697 572.058 720.558 572.542 722.42C573.038 724.332 574.238 725.522 574.975 726.199C575.86 727.012 576.191 727.225 576.715 727.824L582.744 722.566C581.836 721.526 580.705 720.599 580.387 720.307C579.921 719.88 580.179 720 580.285 720.41C580.379 720.77 580.19 720.697 580.572 719.622C580.949 718.563 581.725 716.954 583.179 714.476L576.279 710.427ZM576.718 727.828C578.105 729.415 586.167 739.092 593.95 748.456C597.827 753.119 601.614 757.68 604.432 761.076C605.841 762.773 607.008 764.18 607.822 765.161C608.229 765.652 608.548 766.037 608.766 766.299C608.874 766.43 608.958 766.53 609.014 766.598C609.042 766.632 609.063 766.657 609.077 766.675C609.084 766.683 609.09 766.69 609.093 766.694C609.095 766.696 609.096 766.698 609.097 766.699C609.098 766.699 609.098 766.7 609.098 766.7C609.098 766.7 609.098 766.7 612.178 764.147C615.257 761.594 615.256 761.594 615.256 761.593C615.256 761.593 615.256 761.593 615.255 761.592C615.254 761.591 615.253 761.589 615.251 761.587C615.248 761.583 615.242 761.576 615.235 761.568C615.221 761.551 615.2 761.525 615.171 761.491C615.115 761.423 615.032 761.323 614.923 761.192C614.706 760.93 614.387 760.545 613.979 760.054C613.164 759.072 611.997 757.665 610.588 755.967C607.769 752.57 603.981 748.007 600.102 743.342C592.377 734.048 584.214 724.249 582.741 722.563L576.718 727.828ZM612.178 764.147C608.668 766.066 608.669 766.067 608.669 766.068C608.669 766.069 608.67 766.07 608.67 766.071C608.671 766.072 608.672 766.074 608.674 766.076C608.676 766.081 608.679 766.086 608.683 766.093C608.69 766.106 608.699 766.123 608.711 766.145C608.735 766.187 608.769 766.247 608.811 766.322C608.896 766.471 609.017 766.682 609.173 766.945C609.483 767.469 609.932 768.205 610.499 769.072C611.625 770.794 613.255 773.094 615.229 775.313C617.173 777.499 619.621 779.8 622.418 781.325C625.254 782.87 628.817 783.796 632.563 782.475L629.902 774.93C628.997 775.249 627.854 775.176 626.246 774.3C624.598 773.402 622.863 771.859 621.206 769.996C619.579 768.167 618.189 766.213 617.195 764.693C616.702 763.94 616.316 763.307 616.057 762.869C615.928 762.651 615.83 762.482 615.768 762.371C615.736 762.316 615.714 762.276 615.7 762.252C615.693 762.239 615.689 762.231 615.687 762.227C615.686 762.225 615.685 762.224 615.685 762.224C615.685 762.224 615.685 762.224 615.686 762.225C615.686 762.225 615.686 762.226 615.686 762.226C615.686 762.227 615.687 762.228 612.178 764.147ZM632.561 782.475C636.167 781.205 638.236 778.458 639.29 775.546C640.3 772.753 640.458 769.649 640.323 766.949C640.051 761.52 638.51 756.392 638.215 755.445L630.578 757.828C630.82 758.606 632.113 762.955 632.333 767.349C632.444 769.561 632.262 771.456 631.767 772.823C631.316 774.07 630.714 774.644 629.903 774.93L632.561 782.475ZM630.587 757.857C630.898 758.829 632.796 764.614 635.588 769.519C636.94 771.896 638.778 774.573 641.115 776.218C642.339 777.081 643.919 777.815 645.781 777.854C647.712 777.894 649.461 777.176 650.925 775.986L645.875 769.78C645.634 769.977 645.685 769.85 645.948 769.856C646.142 769.86 646.083 769.933 645.722 769.678C644.887 769.09 643.762 767.708 642.541 765.562C640.185 761.423 638.492 756.31 638.206 755.417L630.587 757.857ZM650.926 775.984C656.476 771.464 655.705 764.565 654.694 760.457C654.147 758.238 653.393 756.254 652.915 754.985C652.645 754.268 652.527 753.942 652.484 753.789C652.44 753.634 652.57 753.999 652.556 754.556C652.55 754.811 652.51 755.694 651.886 756.607C651.069 757.802 649.782 758.313 648.659 758.313V750.313C647.469 750.313 646.132 750.849 645.282 752.092C644.624 753.054 644.567 754.009 644.559 754.36C644.541 755.106 644.725 755.75 644.782 755.955C644.942 756.522 645.214 757.237 645.428 757.805C645.919 759.108 646.508 760.674 646.926 762.369C647.841 766.09 647.477 768.476 645.874 769.782L650.926 775.984ZM648.659 758.313C647.531 758.313 646.74 757.836 646.37 757.559C645.995 757.279 645.776 757.003 645.697 756.899C645.539 756.692 645.491 756.568 645.559 756.705C645.683 756.955 645.844 757.344 646.152 758.072C646.699 759.366 647.546 761.336 648.757 763.191C649.948 765.014 651.746 767.13 654.397 768.276C657.25 769.511 660.454 769.353 663.75 767.739L660.232 760.555C658.7 761.305 657.957 761.1 657.573 760.934C656.986 760.68 656.256 760.042 655.455 758.816C654.674 757.621 654.065 756.246 653.521 754.957C653.283 754.394 652.99 753.683 652.728 753.154C652.603 752.902 652.38 752.47 652.061 752.052C651.902 751.843 651.606 751.485 651.158 751.15C650.715 750.819 649.853 750.313 648.659 750.313V758.313ZM663.752 767.738C666.795 766.246 668.958 764.179 669.969 761.526C670.966 758.913 670.588 756.399 669.924 754.498C669.264 752.61 668.227 751.038 667.437 749.999C667.029 749.464 666.656 749.03 666.378 748.723C666.238 748.568 666.12 748.444 666.031 748.352C665.987 748.306 665.95 748.268 665.92 748.239C665.906 748.224 665.893 748.212 665.882 748.201C665.877 748.196 665.872 748.191 665.868 748.187C665.866 748.185 665.864 748.183 665.862 748.181C665.861 748.181 665.86 748.179 665.859 748.179C665.858 748.178 665.857 748.176 663.064 751.04C660.271 753.903 660.269 753.902 660.268 753.901C660.268 753.9 660.267 753.899 660.266 753.899C660.265 753.897 660.264 753.896 660.263 753.895C660.26 753.893 660.259 753.891 660.258 753.89C660.255 753.888 660.255 753.887 660.256 753.888C660.258 753.891 660.268 753.901 660.284 753.917C660.316 753.951 660.374 754.011 660.449 754.094C660.603 754.263 660.825 754.521 661.071 754.844C661.588 755.523 662.093 756.341 662.372 757.138C662.646 757.921 662.604 758.388 662.494 758.676C662.399 758.925 662.014 759.68 660.23 760.556L663.752 767.738ZM665.257 747.694C638.763 730.326 626.688 720.935 611.638 704.645L605.762 710.074C621.441 727.045 634.121 736.849 660.871 754.385L665.257 747.694Z" fill="black"/>
<path d="M333.065 312.711L340.87 293.734L347.611 283.516L373.511 291.727L414.313 303.587C414.313 303.587 461.856 312.711 500.53 312.711C539.203 312.711 563.329 307.237 563.329 307.237L644.223 283.516L647.771 289.355L654.867 307.237C663.324 349.823 666.663 373.348 666.577 413.801C665.816 462.951 663.305 490.44 654.867 539.343C644.239 593.041 622.58 672.546 620.097 675.835C617.613 679.117 593.132 677.658 590.649 675.835C588.165 674.005 599.518 645.543 594.196 640.066C588.875 634.597 581.779 633.861 575.747 633.861H501.949C499.111 633.861 431.699 637.514 424.958 640.066C418.216 642.626 412.185 647.73 410.766 653.572C409.347 659.413 414.313 678.752 415.023 684.958C415.733 691.163 393.735 692.622 388.059 689.333C382.382 686.052 352.117 598.949 338.387 535.694C331.426 488.736 328.589 462.523 325.613 415.991C323.424 373.185 326.105 351.081 333.065 312.711Z" fill="white" stroke="black" stroke-width="8" stroke-linecap="round"/>
<path d="M331.316 285.055C331.316 285.055 344.78 271.149 347.969 270.436C411.338 290.574 444.698 297.322 498.559 297.536C546.951 298.556 643.907 271.785 648.689 270.465L648.793 270.436C651.963 269.562 660.132 285.055 660.132 285.055C660.132 285.055 652.336 287.908 648.793 285.055C645.25 282.203 648.439 283.985 645.959 282.203C643.478 280.42 581.92 301.131 568.007 304.667C554.093 308.203 472.089 311.882 429.819 304.667C387.549 297.451 357.758 281.194 350.45 282.203C343.141 283.212 343.717 291.83 340.528 289.334C337.34 286.838 331.316 285.055 331.316 285.055Z" fill="white" stroke="black" stroke-width="8" stroke-linecap="round"/>
<path d="M500.04 316.644C500.04 316.644 490.643 311.666 482.292 316.644C473.939 321.623 473.243 330.158 477.768 330.87C482.292 331.581 500.04 316.644 500.04 316.644ZM500.04 316.644C500.04 316.644 511.176 313.088 517.789 316.644C524.4 320.201 531.013 324.824 522.661 329.092C514.308 333.359 500.04 316.644 500.04 316.644ZM500.04 316.644L495.864 333.359M500.04 316.644L506.304 336.916" stroke="black" stroke-width="8" stroke-linecap="round"/>
<path d="M586.392 405.478C586.411 405.441 586.43 405.406 586.447 405.372C567.975 400.054 544.642 404.922 525.518 406.375C519.453 388.591 514.662 365.97 502.956 350.984C502.952 350.978 502.948 350.973 502.944 350.968C491.064 367.476 484.865 388.797 477.3 407.581C475.465 412.142 477.031 411.919 471.086 411.626C450.314 410.621 428.454 407.804 407.763 411.112C420.593 427.777 440.034 438.288 456.88 450.137C461.364 453.294 460.865 453.814 459.332 458.361C452.071 479.89 443.514 501.772 439.548 524.284C458.879 510.51 476.837 494.772 495.124 479.585C498.739 476.58 499.199 476.485 503.063 479.042C520.892 490.831 539.01 504.848 558.804 513.019C556.666 492.64 547.862 472.061 541.349 452.809C539.17 446.359 538.345 449.312 543.489 445.2C557.428 434.062 577.607 421.858 586.392 405.478Z" stroke="black" stroke-width="8"/>
<path d="M502.113 699.474C469.68 676.185 449.315 661.664 417.895 646.423C427.422 639.162 435.65 633.764 498.57 633.024C561.489 632.285 593.557 637.885 587.582 641.28C581.608 644.682 529.799 666.834 502.113 699.474Z" fill="white" stroke="black" stroke-width="8" stroke-linecap="round"/>
<path d="M173.94 236.932C168.649 231.46 333.745 314.638 333.745 314.638C319.876 369.679 321.359 422.051 338.684 549.579C338.684 549.579 179.232 242.405 173.94 236.932Z" fill="white" stroke="black" stroke-width="8" stroke-linecap="round"/>
<path d="M150.023 548.496C147.079 546.67 187.272 261.721 175.289 237.88C163.307 214.039 339.541 551.524 339.541 551.524L350.658 592.674C268.708 538.637 152.968 550.322 150.023 548.496Z" fill="white" stroke="black" stroke-width="8" stroke-linecap="round"/>
<path d="M21.8801 299.801C19.0549 298.718 174.408 234.8 174.408 234.8C188.921 246.099 147.548 566.905 149.014 547.824C150.481 528.743 135.918 455.861 106.636 400.887C78.9136 355.291 60.4605 333.047 21.8801 299.801Z" fill="white" stroke="black" stroke-width="8" stroke-linecap="round"/>
<path d="M137.133 114.884C139.978 119.277 171.974 235.681 171.974 235.681C171.974 235.681 24.7942 296.08 21.9501 297.544C19.106 299.008 73.2057 234.583 90.9181 206.397C108.631 178.211 137.133 114.884 137.133 114.884Z" fill="white" stroke="black" stroke-width="8" stroke-linecap="round"/>
<path d="M146.904 55.0456C150.804 54.159 150.804 54.1579 150.804 54.1567L150.803 54.1542L150.802 54.1488L150.799 54.1361L150.791 54.1035C150.785 54.0788 150.778 54.0479 150.769 54.0114C150.751 53.9387 150.726 53.8428 150.694 53.7288C150.633 53.5038 150.54 53.1933 150.417 52.8426C150.214 52.2676 149.765 51.0971 148.933 50.1207C148.502 49.6149 147.706 48.8479 146.478 48.4817C145.074 48.0629 143.69 48.3392 142.594 49.0045C141.633 49.5875 140.98 50.4051 140.539 51.0869C140.074 51.8048 139.67 52.6447 139.303 53.5674L139.303 53.5675C138.694 55.0986 138.109 56.7658 137.561 58.4245C137.545 58.3655 137.528 58.3067 137.511 58.2479C136.634 55.1612 135.569 51.796 134.36 49.489C133.846 48.5074 132.886 46.8503 131.26 45.9478C130.253 45.389 128.884 45.0669 127.408 45.5166C126.064 45.9259 125.181 46.8122 124.651 47.5099C122.758 50.0043 122.601 53.3694 122.723 55.8574C122.787 57.1711 122.949 58.5347 123.164 59.8778C122.554 59.3989 121.926 58.9569 121.293 58.5861C119.961 57.8053 116.84 56.3137 113.914 58.3337C112.506 59.3059 112.021 60.724 111.868 61.6716C111.719 62.5988 111.808 63.4829 111.923 64.1562C112.158 65.5252 112.693 67.0571 113.298 68.528C114.535 71.5335 116.451 75.1988 118.39 78.6598C120.346 82.1515 122.396 85.5604 123.951 88.0883C124.73 89.3545 125.388 90.4046 125.852 91.1397C126.021 91.4063 126.164 91.6316 126.278 91.8109L168.133 234.926L168.628 236.618L170.21 237.394L332.624 317.086L336.712 319.092L338.174 314.779L345.236 293.942L346.395 290.522L343.111 289.021L187.275 217.753L186.161 214.112C185.116 210.699 183.622 205.82 181.826 199.96C178.235 188.238 173.435 172.587 168.602 156.866C163.769 141.146 158.902 125.354 155.176 113.354C153.314 107.355 151.735 102.298 150.588 98.6692C150.014 96.8564 149.546 95.3907 149.203 94.3392C149.135 94.1306 149.071 93.9361 149.011 93.7568C149.166 93.5408 149.362 93.2816 149.606 92.9785C150.708 91.6098 152.338 89.8822 154.097 88.1282C155.836 86.395 157.616 84.7191 158.968 83.4711C159.642 82.8487 160.206 82.3362 160.6 81.9804C160.797 81.8027 160.951 81.6642 161.056 81.571L161.173 81.4659L161.202 81.4402L161.209 81.4343L161.21 81.4332L161.21 81.433L161.349 81.3095L161.477 81.1734L158.555 78.4414C161.477 81.1734 161.477 81.1729 161.478 81.1724L161.479 81.1711L161.482 81.168L161.49 81.1594L161.514 81.1331C161.534 81.1116 161.561 81.0822 161.595 81.0455C161.662 80.9722 161.755 80.8694 161.868 80.7418C162.094 80.4878 162.404 80.1303 162.751 79.7093C163.409 78.9094 164.332 77.7171 165.008 76.5067C165.334 75.922 165.735 75.1035 165.938 74.183C166.121 73.3591 166.343 71.5039 164.99 69.8735C163.641 68.247 161.752 68.0828 160.762 68.1109C159.67 68.1419 158.52 68.4238 157.398 68.7935C154.355 69.7959 151.521 70.926 149.314 71.8078C149.48 69.989 149.677 67.9049 149.873 65.844C150.126 63.1977 150.379 60.5963 150.568 58.656C150.663 57.686 150.742 56.8815 150.797 56.3197L150.861 55.6685L150.878 55.4975L150.883 55.4538L150.884 55.4428L150.884 55.44L150.884 55.4394C150.884 55.4392 150.884 55.4392 146.904 55.0456ZM146.904 55.0456L150.804 54.159L150.948 54.7926L150.884 55.4392L146.904 55.0456ZM148.388 92.0559C148.397 92.0748 148.406 92.0937 148.414 92.1125C148.406 92.0933 148.397 92.0744 148.388 92.0559ZM148.58 94.4323C148.576 94.441 148.574 94.4454 148.574 94.4454C148.574 94.4454 148.575 94.4411 148.58 94.4323ZM142.721 55.1434C142.721 55.1433 142.723 55.1464 142.727 55.1529C142.723 55.1468 142.721 55.1435 142.721 55.1434Z" fill="white" stroke="black" stroke-width="8" stroke-linecap="round"/>
<path d="M651.842 543.946C539.204 575.344 472.006 577.104 341.447 538.337L345.264 556.661C468.351 590.178 534.419 588.324 648.588 559.279L651.842 543.946Z" fill="white" stroke="black" stroke-width="8" stroke-linecap="round"/>
</svg>
